<svg xmlns="http://www.w3.org/2000/svg" width="343" height="135" viewBox="0 0 343 135" fill="none"><g clip-path="url(#clip0_1728_5684)"><path d="M126.948 134.018V131.649L129.667 131.386C130.19 131.349 130.264 131.202 130.264 130.645V110.561C130.264 110.004 130.19 109.857 129.667 109.82L126.948 109.557V107.188H138.082V109.557L135.216 109.851C134.656 109.924 134.619 109.998 134.619 110.555V130.602C134.619 131.196 134.656 131.269 135.216 131.343L138.082 131.637V134.006H126.948V134.018Z" fill="#231F20"></path><path d="M153.246 134.018V131.686L155.109 131.465C155.632 131.392 155.706 131.171 155.706 130.725V122.13C155.706 119.908 155.448 118.053 153.061 118.053C151.16 118.053 149.186 119.088 147.961 119.982V130.651C147.961 131.245 147.998 131.318 148.558 131.392L150.533 131.655V134.024H141.299V131.612L143.083 131.392C143.606 131.318 143.68 131.208 143.68 130.651V118.721C143.68 118.31 143.569 118.053 143.194 117.943L141.146 117.239L141.521 114.87H147.033L147.328 116.909L147.475 116.945C149.561 115.537 151.757 114.497 154.439 114.497C158.462 114.497 159.988 117.019 159.988 121.279V130.651C159.988 131.245 160.025 131.318 160.584 131.392L162.633 131.655V134.024H153.252L153.246 134.018Z" fill="#231F20"></path><path d="M178.812 134.018L178.48 131.833L178.258 131.796C176.622 133.424 174.758 134.465 171.929 134.465C167.647 134.465 164.817 131.722 164.817 124.793C164.817 117.417 168.318 114.491 172.636 114.491C174.869 114.491 176.733 115.121 178.148 116.156V109.857C178.148 109.483 178.037 109.226 177.662 109.116L175.539 108.412L175.915 106.043H182.318V130.645C182.318 131.239 182.355 131.312 182.915 131.386L184.742 131.649V134.018H178.824H178.812ZM178.031 119.682C176.948 118.788 175.349 117.9 173.712 117.9C170.508 117.9 169.24 120.716 169.24 124.683C169.24 129.243 170.618 130.982 173.116 130.982C174.943 130.982 176.727 129.868 178.031 128.496V119.682Z" fill="#231F20"></path><path d="M187.239 134.018V131.686L189.472 131.386C189.995 131.312 190.069 131.202 190.069 130.645V118.714C190.069 118.304 189.958 118.047 189.583 117.937L187.535 117.233L187.91 114.864H194.35V130.651C194.35 131.245 194.387 131.318 194.947 131.392L197.143 131.655V134.024H187.239V134.018ZM191.742 111.228C189.958 111.228 188.949 110.224 188.949 108.449C188.949 106.674 189.958 105.743 191.742 105.743C193.526 105.743 194.535 106.704 194.535 108.449C194.535 110.194 193.489 111.228 191.742 111.228Z" fill="#231F20"></path><path d="M212.036 134.018L211.661 131.833L211.55 131.796C209.914 133.351 207.903 134.465 204.999 134.465C200.305 134.465 199.672 131.276 199.672 129.2C199.672 125.497 201.979 123.716 206.525 123.348L211.255 122.975V121.083C211.255 118.751 210.843 117.49 207.976 117.49C205.928 117.49 204.55 117.637 204.55 120.196L200.527 119.822C200.527 115.078 204.882 114.485 208.05 114.485C213.451 114.485 215.463 116.003 215.463 121.12V130.639C215.463 131.233 215.5 131.306 216.06 131.38L217.887 131.643V134.012H212.043L212.036 134.018ZM211.255 125.681L207.718 125.974C204.925 126.238 204.07 127.009 204.07 128.79C204.07 130.572 204.925 131.159 206.451 131.159C208.278 131.159 210.136 130.045 211.255 128.937V125.674V125.681Z" fill="#231F20"></path><path d="M23.4056 66.8848V44.2786C23.4056 43.1828 24.2975 42.3014 25.3925 42.3014H39.1904C40.2915 42.3014 41.1773 43.189 41.1773 44.2786V44.9458C41.1773 46.0415 40.2853 46.923 39.1904 46.923H28.6528V53.1546H37.388C38.4891 53.1546 39.3749 54.0422 39.3749 55.1318V55.799C39.3749 56.8947 38.4829 57.7762 37.388 57.7762H28.6528V64.2343H39.1904C40.2915 64.2343 41.1773 65.1219 41.1773 66.2115V66.8787C41.1773 67.9744 40.2853 68.8559 39.1904 68.8559H25.3925C24.2914 68.8559 23.4056 67.9683 23.4056 66.8787V66.8848ZM82.1711 67.5582L80.9284 64.1608H70.5078L69.259 67.5643C68.9699 68.3478 68.2255 68.862 67.3889 68.862H66.4293C65.0391 68.862 64.0794 67.4786 64.5715 66.187L73.1406 43.5807C73.4297 42.8094 74.1741 42.3014 74.9984 42.3014H76.4378C77.2683 42.3014 78.0065 42.8094 78.2956 43.5807L86.8647 66.187C87.3568 67.4786 86.391 68.862 85.0069 68.862H84.0473C83.2107 68.862 82.4663 68.3417 82.1772 67.5582H82.1711ZM72.1318 59.7963H79.2921L75.712 50.149L72.1318 59.7963ZM118.324 66.8848V44.2786C118.324 43.1828 119.216 42.3014 120.31 42.3014H134.108C135.209 42.3014 136.095 43.189 136.095 44.2786V44.9458C136.095 46.0415 135.203 46.923 134.108 46.923H123.571V53.1546H132.306C133.407 53.1546 134.293 54.0422 134.293 55.1318V55.799C134.293 56.8947 133.401 57.7762 132.306 57.7762H123.571V64.2343H134.108C135.209 64.2343 136.095 65.1219 136.095 66.2115V66.8787C136.095 67.9744 135.203 68.8559 134.108 68.8559H120.31C119.209 68.8559 118.324 67.9683 118.324 66.8787V66.8848ZM109.004 43.3542L101.893 56.8274L94.7817 43.3542C94.4372 42.7054 93.7605 42.2952 93.0223 42.2952H91.7674C90.6663 42.2952 89.7805 43.1828 89.7805 44.2724V66.8787C89.7805 67.9744 90.6725 68.8559 91.7674 68.8559H93.0408C94.1419 68.8559 95.0277 67.9683 95.0277 66.8787V53.4668L99.869 62.961C100.207 63.6282 100.89 64.0445 101.641 64.0445H102.133C102.883 64.0445 103.566 63.6282 103.904 62.961L108.746 53.4668V66.8787C108.746 67.9744 109.638 68.8559 110.733 68.8559H112.006C113.107 68.8559 113.993 67.9683 113.993 66.8787V44.2724C113.993 43.1767 113.101 42.2952 112.006 42.2952H110.751C110.013 42.2952 109.336 42.7054 108.992 43.3542H109.004ZM60.1671 67.2276C62.074 65.7585 63.0829 63.6588 63.0829 61.1552C63.0829 58.6516 62.3755 56.7233 60.9791 55.4256C59.8103 54.3176 58.1986 53.6688 55.7564 53.3137L52.5515 52.8546C51.3827 52.6771 50.6445 52.371 50.0047 51.7956C49.4696 51.2998 49.2112 50.6142 49.2112 49.696C49.2112 47.4066 51.3335 46.3843 53.4434 46.3843C55.7072 46.3843 57.3927 47.278 58.5061 47.8718L58.5861 47.9147C58.9675 48.1167 59.4473 48.2269 59.9333 48.2269C60.5608 48.2269 61.1082 48.0493 61.4958 47.7188L61.6865 47.5474C62.1786 47.0944 62.4431 46.4578 62.4124 45.7905C62.3816 45.1478 62.0802 44.5663 61.5758 44.1806C60.0256 42.9992 56.6238 41.781 53.6034 41.781C47.8394 41.781 44.1116 45.007 44.1116 50.0021C44.1116 52.3037 44.7513 54.0422 46.0616 55.3093C47.3042 56.5091 48.9836 57.2253 51.3396 57.5742L54.5999 58.0517C55.8487 58.2353 56.5623 58.5108 57.0728 58.9944C57.6203 59.5208 57.9095 60.3105 57.9095 61.2838C57.9095 64.0445 55.4058 64.6199 53.3081 64.6199C50.7983 64.6199 48.8667 63.3589 47.581 62.5203C47.175 62.2571 46.6214 62.0979 46.0985 62.0979C45.5756 62.0979 45.1635 62.2448 44.8375 62.5203L44.5176 62.808C44.0439 63.2365 43.7856 63.818 43.7917 64.4485C43.7917 65.1035 44.0931 65.7401 44.6037 66.1809C46.8244 68.1213 50.2139 69.3701 53.2466 69.3701C55.9963 69.3701 58.3278 68.6478 60.1732 67.2215L60.1671 67.2276ZM17.1618 67.2276C19.0687 65.7585 20.0776 63.6588 20.0776 61.1552C20.0776 58.6516 19.3702 56.7233 17.9738 55.4256C16.805 54.3176 15.1933 53.6688 12.7511 53.3137L9.54619 52.8546C8.3774 52.6771 7.63922 52.371 6.99946 51.7956C6.46428 51.2998 6.20591 50.6142 6.20591 49.696C6.20591 47.4066 8.32819 46.3843 10.4382 46.3843C12.7019 46.3843 14.3874 47.278 15.5009 47.8718L15.5808 47.9147C15.9622 48.1167 16.442 48.2269 16.928 48.2269C17.5555 48.2269 18.103 48.0493 18.4905 47.7188L18.6812 47.5474C19.1733 47.0944 19.4378 46.4578 19.4071 45.7905C19.3763 45.1478 19.0749 44.5663 18.5705 44.1806C17.0203 42.9992 13.6185 41.781 10.5981 41.781C4.83413 41.781 1.1063 45.007 1.1063 50.0021C1.1063 52.3037 1.74606 54.0422 3.05634 55.3093C4.29894 56.5091 5.97831 57.2253 8.33434 57.5742L11.5946 58.0517C12.8434 58.2353 13.557 58.5108 14.0676 58.9944C14.615 59.5208 14.9042 60.3105 14.9042 61.2838C14.9042 64.0445 12.4005 64.6199 10.3028 64.6199C7.79301 64.6199 5.86143 63.3589 4.57576 62.5203C4.16976 62.2571 3.61612 62.0979 3.09325 62.0979C2.57037 62.0979 2.15821 62.2448 1.83218 62.5203L1.5123 62.808C1.03249 63.2426 0.780273 63.8241 0.780273 64.4546C0.780273 65.1096 1.0817 65.7462 1.59227 66.187C3.81297 68.1275 7.20246 69.3762 10.2352 69.3762C12.9849 69.3762 15.3163 68.6539 17.1618 67.2276ZM334.02 42.3136H325.667C324.578 42.3136 323.692 43.1951 323.692 44.2786V66.9215C323.692 68.005 324.578 68.8865 325.667 68.8865H326.94C328.029 68.8865 328.915 68.005 328.915 66.9215V58.7924H334.02C339.538 58.7924 342.78 55.0461 342.78 50.553C342.78 46.0599 339.538 42.3136 334.02 42.3136ZM333.719 54.1891H328.909V46.9169H333.719C336.069 46.9169 337.558 48.3799 337.558 50.553C337.558 52.7261 336.069 54.1891 333.719 54.1891ZM175.84 42.3136H174.918C174.013 42.3136 173.22 42.9257 173.004 43.8011L169.215 58.9515L164.786 43.7276C164.54 42.889 163.771 42.3075 162.891 42.3075H161.962C161.083 42.3075 160.314 42.8829 160.068 43.7276L155.645 58.9515L151.855 43.8011C151.634 42.9257 150.847 42.3136 149.942 42.3136H149.02C147.734 42.3136 146.793 43.5134 147.107 44.756L152.797 67.399C153.018 68.2744 153.806 68.8865 154.71 68.8865H156.118C156.998 68.8865 157.767 68.3111 158.013 67.4725L162.43 52.3404L166.847 67.4725C167.093 68.3111 167.862 68.8865 168.741 68.8865H170.15C171.054 68.8865 171.848 68.2744 172.063 67.399L177.753 44.756C178.067 43.5195 177.12 42.3136 175.84 42.3136ZM316.353 44.8723C314.563 43.0727 312.306 42.0871 309.23 42.0871C306.154 42.0871 303.896 43.0727 302.106 44.8723C299.48 47.4862 299.381 50.4734 299.381 55.5235C299.381 60.5737 299.474 63.5548 302.106 66.1747C303.896 67.9744 306.154 68.96 309.23 68.96C312.306 68.96 314.563 67.9744 316.353 66.1747C318.98 63.5609 319.072 60.5737 319.072 55.5235C319.072 50.4734 318.98 47.4923 316.353 44.8723ZM312.564 62.9243C311.82 63.7568 310.645 64.3506 309.23 64.3506C307.815 64.3506 306.64 63.7568 305.89 62.9243C304.899 61.8102 304.604 60.5676 304.604 55.5235C304.604 50.4795 304.899 49.2185 305.89 48.1044C306.634 47.2536 307.809 46.6965 309.23 46.6965C310.651 46.6965 311.82 47.2536 312.564 48.1044C313.554 49.2185 313.85 50.4795 313.85 55.5235C313.85 60.5676 313.548 61.8102 312.564 62.9243ZM197.641 44.8723C195.851 43.0727 193.594 42.0871 190.518 42.0871C187.442 42.0871 185.184 43.0727 183.394 44.8723C180.768 47.4862 180.669 50.4734 180.669 55.5235C180.669 60.5737 180.761 63.5548 183.394 66.1747C185.184 67.9744 187.442 68.96 190.518 68.96C193.594 68.96 195.851 67.9744 197.641 66.1747C200.268 63.5609 200.36 60.5737 200.36 55.5235C200.36 50.4734 200.268 47.4923 197.641 44.8723ZM193.858 62.9243C193.114 63.7568 191.939 64.3506 190.518 64.3506C189.097 64.3506 187.928 63.7568 187.178 62.9243C186.187 61.8102 185.892 60.5676 185.892 55.5235C185.892 50.4795 186.187 49.2185 187.178 48.1044C187.922 47.2536 189.097 46.6965 190.518 46.6965C191.939 46.6965 193.108 47.2536 193.858 48.1044C194.848 49.2185 195.144 50.4795 195.144 55.5235C195.144 60.5676 194.848 61.8102 193.858 62.9243ZM280.558 66.9154V57.6721H289.545V66.9154C289.545 67.9989 290.431 68.8804 291.52 68.8804H292.793C293.882 68.8804 294.768 67.9989 294.768 66.9154V44.1255C294.768 43.042 293.882 42.1606 292.793 42.1606H291.52C290.431 42.1606 289.545 43.042 289.545 44.1255V53.0689H280.558V44.1255C280.558 43.042 279.672 42.1606 278.583 42.1606H277.31C276.221 42.1606 275.335 43.042 275.335 44.1255V66.9154C275.335 67.9989 276.221 68.8804 277.31 68.8804H278.583C279.672 68.8804 280.558 67.9989 280.558 66.9154ZM267.806 67.1297C269.706 65.6605 270.715 63.567 270.715 61.0695C270.715 58.572 270.008 56.6438 268.617 55.3521C267.449 54.2503 265.843 53.5953 263.401 53.2403L260.202 52.7812C259.04 52.6036 258.301 52.2976 257.662 51.7283C257.126 51.2325 256.868 50.5469 256.868 49.6286C256.868 47.3454 258.99 46.3231 261.088 46.3231C263.346 46.3231 265.031 47.2168 266.138 47.8045L266.218 47.8473C266.6 48.0493 267.08 48.1595 267.559 48.1595C268.181 48.1595 268.734 47.982 269.116 47.6514L269.306 47.48C269.799 47.0271 270.063 46.3904 270.032 45.7232C270.002 45.0866 269.7 44.4989 269.196 44.1194C267.652 42.9441 264.25 41.726 261.236 41.726C255.478 41.726 251.762 44.9458 251.762 49.9347C251.762 52.2364 252.396 53.9687 253.706 55.2358C254.943 56.4295 256.622 57.1518 258.978 57.4946L262.238 57.9721C263.487 58.1557 264.201 58.4312 264.705 58.9148C265.253 59.4351 265.536 60.2309 265.536 61.2042C265.536 63.9588 263.038 64.5342 260.94 64.5342C258.437 64.5342 256.505 63.2732 255.226 62.4407C254.82 62.1775 254.266 62.0183 253.749 62.0183C253.233 62.0183 252.82 62.1591 252.494 62.4407L252.174 62.7284C251.701 63.1508 251.449 63.7384 251.449 64.3689C251.449 65.0239 251.75 65.6544 252.254 66.1013C254.469 68.0356 257.858 69.2844 260.885 69.2844C263.629 69.2844 265.96 68.5621 267.806 67.1358V67.1297ZM247.493 45.3804L241.336 52.7995L248.871 65.9482C249.622 67.2582 248.674 68.8865 247.155 68.8865H245.814C245.106 68.8865 244.454 68.507 244.104 67.8948L237.675 56.7111L234.28 60.794V66.9215C234.28 68.005 233.394 68.8865 232.305 68.8865H231.032C229.943 68.8865 229.057 68.005 229.057 66.9215V44.1317C229.057 43.0482 229.943 42.1667 231.032 42.1667H232.305C233.394 42.1667 234.28 43.0482 234.28 44.1317V53.6504L243.267 42.8768C243.642 42.4299 244.196 42.1667 244.787 42.1667H245.968C247.635 42.1667 248.551 44.101 247.487 45.3804H247.493ZM224.179 65.9421L219.227 57.36C222.284 56.1357 224.037 53.5402 224.037 50.3816C224.037 45.9681 220.832 42.3136 215.407 42.3136H206.961C205.872 42.3136 204.986 43.1951 204.986 44.2786V66.9215C204.986 68.005 205.872 68.8865 206.961 68.8865H208.234C209.323 68.8865 210.209 68.005 210.209 66.9215V58.2169H213.844L219.418 67.8948C219.768 68.507 220.42 68.8804 221.128 68.8804H222.469C223.988 68.8804 224.936 67.246 224.179 65.936V65.9421ZM215.13 53.8708H210.209V46.9108H215.13C217.406 46.9108 218.858 48.3187 218.858 50.3999C218.858 52.4812 217.406 53.8708 215.13 53.8708Z" fill="#231F20"></path><path d="M171.78 8.08911C165.795 8.08911 160.08 10.3112 155.682 14.339C151.339 18.3241 148.657 23.717 148.115 29.5384C148.115 29.5507 148.115 29.5568 148.115 29.569C148.072 29.9363 148.035 30.2852 148.005 30.6097C147.857 32.1033 146.596 33.2296 145.089 33.2296H3.71455C2.0967 33.2296 0.780273 31.9258 0.780273 30.3097V28.8283C0.780273 27.2184 2.09055 25.9084 3.71455 25.9084H141.213C142.456 19.4198 145.753 13.4882 150.699 8.95223C156.457 3.6756 163.943 0.767944 171.78 0.767944C179.617 0.767944 187.104 3.6756 192.862 8.95223C197.807 13.482 201.105 19.4198 202.347 25.9084H339.846C341.464 25.9084 342.78 27.2123 342.78 28.8283V30.3097C342.78 31.9196 341.47 33.2296 339.846 33.2296H198.466C196.958 33.2296 195.697 32.1033 195.55 30.6097C195.519 30.2852 195.482 29.9363 195.439 29.569C195.439 29.5568 195.439 29.5507 195.439 29.5384C194.898 23.717 192.216 18.3179 187.873 14.339C183.474 10.3051 177.76 8.08911 171.774 8.08911H171.78Z" fill="#231F20"></path><path d="M339.846 78.5399H3.71455C2.09399 78.5399 0.780273 79.8472 0.780273 81.4598V82.9351C0.780273 84.5477 2.09399 85.855 3.71455 85.855H339.846C341.467 85.855 342.78 84.5477 342.78 82.9351V81.4598C342.78 79.8472 341.467 78.5399 339.846 78.5399Z" fill="#231F20"></path><path d="M336.075 68.6601C336.026 68.5683 336.013 68.4887 336.013 68.2622V65.5933H335.472C335.275 65.5933 335.201 65.581 335.115 65.5321C334.998 65.4709 334.931 65.3484 334.931 65.1893C334.931 65.0301 334.998 64.9077 335.115 64.8465C335.201 64.7975 335.275 64.7853 335.472 64.7853H337.471C337.668 64.7853 337.742 64.7975 337.828 64.8465C337.951 64.9077 338.019 65.0301 338.019 65.1893C338.019 65.3484 337.951 65.4709 337.828 65.5321C337.742 65.581 337.668 65.5933 337.471 65.5933H336.93V68.2622C336.93 68.4887 336.918 68.5683 336.868 68.6601C336.795 68.8009 336.647 68.8866 336.469 68.8866C336.29 68.8866 336.142 68.807 336.069 68.6601H336.075ZM340.147 67.6623L339.514 66.4503V68.2561C339.514 68.4826 339.501 68.5622 339.452 68.654C339.378 68.7948 339.231 68.8805 339.052 68.8805C338.874 68.8805 338.726 68.8009 338.652 68.654C338.603 68.5622 338.591 68.4826 338.591 68.2561V65.4219C338.591 65.2566 338.591 65.0485 338.745 64.9077C338.861 64.7914 338.997 64.7485 339.144 64.7485C339.261 64.7485 339.372 64.7791 339.446 64.822C339.538 64.8771 339.63 64.9811 339.717 65.1403L340.682 66.94L341.648 65.1403C341.734 64.9811 341.827 64.871 341.919 64.822C341.993 64.773 342.103 64.7485 342.22 64.7485C342.368 64.7485 342.509 64.7975 342.62 64.9077C342.768 65.0485 342.774 65.2566 342.774 65.4219V68.2561C342.774 68.4826 342.762 68.5622 342.712 68.654C342.638 68.7948 342.491 68.8805 342.312 68.8805C342.134 68.8805 341.986 68.8009 341.913 68.654C341.863 68.5622 341.851 68.4826 341.851 68.2561V66.4503L341.218 67.6623C341.119 67.8459 340.928 67.9867 340.676 67.9867C340.424 67.9867 340.233 67.8459 340.135 67.6623H340.147Z" fill="#231F20"></path></g><defs><clipPath id="clip0_1728_5684"><rect width="342" height="133.691" fill="white" transform="translate(0.780273 0.773926)"></rect></clipPath></defs></svg>